<svg width="746" height="965" viewBox="0 0 746 965" fill="none" xmlns="http://www.w3.org/2000/svg">
<path d="M213.624 200.861L361.626 252.906L509.629 200.861L467.343 33.3413L361.626 0L252.657 33.3413L213.624 200.861Z" fill="white"/>
<path d="M181.096 219.565L361.626 282.181L540.531 219.565L649.5 242.586C343.736 446.7 248.259 338.408 70.5 242.29L181.096 219.565Z" fill="white"/>
<path d="M491.739 384.645C394.511 416.842 338.594 420.418 234.767 384.645C263.561 452.14 287.763 508.251 361.626 557.857C470.183 473.284 447.631 437.503 491.739 384.645Z" fill="white"/>
<path d="M190.041 338.292L225.008 468.405L329.912 557.857V633.485C218.585 505.243 166.458 437.503 113.6 319.589L190.041 338.292Z" fill="white"/>
<path d="M392.528 557.857L498.244 468.405L531.586 338.292L614.532 319.589C543.529 444.229 495.101 512.976 392.528 633.485V557.857Z" fill="white"/>
<path d="M274.5 357L301 366L322 384.645L284.5 376H264.5L239.5 350.5L274.5 357Z" fill="#00A3FF"/>
<path d="M432.5 375.855L395 384.5L416 365.855L442.5 356.855L477.5 350.355L452.5 375.855H432.5Z" fill="#00A3FF"/>
<path d="M329.912 633.485C218.585 505.243 166.458 437.503 113.6 319.589L0 421.5L124.5 566.5L199.5 573.5L138 633.485L329.912 964.5V633.485Z" fill="white"/>
<path d="M614.532 319.589C543.529 444.229 495.101 512.976 392.528 633.485L385.5 964.5L583.5 633.485L531.586 573.5L624.5 566.5L746 421.5L614.532 319.589Z" fill="white"/>
<path d="M267.407 363.521L142.16 245.642V59L267.407 191.614L95.5 363.521L267.407 525.605V591.912L331.258 655.763H385.286L449.137 591.912V525.605L623.5 363.521L449.137 191.614L576.84 59V245.642L449.137 363.521" stroke="#00A3FF" stroke-width="19.6465" stroke-linecap="round"/>
</svg>
